<svg width="137" height="30" viewBox="0 0 137 30" fill="none" xmlns="http://www.w3.org/2000/svg">
<path d="M89.5 15C89.5 16.8522 88.3743 18.6963 86.1542 20.446C83.9397 22.1912 80.7043 23.7847 76.6617 25.1323C68.5818 27.8256 57.3876 29.5 45 29.5C32.6124 29.5 21.4182 27.8256 13.3383 25.1323C9.29573 23.7847 6.06031 22.1912 3.84581 20.446C1.62567 18.6963 0.5 16.8522 0.5 15C0.5 13.1478 1.62567 11.3037 3.84581 9.55403C6.06031 7.80881 9.29573 6.21527 13.3383 4.86774C21.4182 2.17443 32.6124 0.5 45 0.5C57.3876 0.5 68.5818 2.17443 76.6617 4.86774C80.7043 6.21527 83.9397 7.80881 86.1542 9.55403C88.3743 11.3037 89.5 13.1478 89.5 15Z" stroke="white"/>
<path d="M136.354 15.3536C136.549 15.1583 136.549 14.8417 136.354 14.6464L133.172 11.4645C132.976 11.2692 132.66 11.2692 132.464 11.4645C132.269 11.6597 132.269 11.9763 132.464 12.1716L135.293 15L132.464 17.8284C132.269 18.0237 132.269 18.3403 132.464 18.5355C132.66 18.7308 132.976 18.7308 133.172 18.5355L136.354 15.3536ZM45 15.5H136V14.5H45V15.5Z" fill="white"/>
</svg>
