<svg width="22" height="22" viewBox="0 0 22 22" fill="none" xmlns="http://www.w3.org/2000/svg">
<path d="M21.7611 1.40933L21.728 1.44241C21.4716 1.71123 21.1986 1.97178 20.9339 2.23647L12.1704 11L21.7611 20.5907C22.0878 20.9174 22.063 21.4302 21.7611 21.7611C21.4592 22.0919 20.8967 22.0671 20.5907 21.7611L20.5576 21.728C20.2888 21.4716 20.0282 21.1986 19.7635 20.9339L11 12.1704L1.40933 21.7611C1.08261 22.0878 0.569782 22.063 0.238927 21.7611C-0.0919286 21.4592 -0.0671145 20.8967 0.238927 20.5907L0.272013 20.5576C0.528425 20.2888 0.80138 20.0282 1.06606 19.7635L9.8296 11L0.238927 1.40933C-0.0877929 1.08261 -0.0629788 0.569782 0.238927 0.238927C0.540832 -0.0919286 1.10329 -0.0671145 1.40933 0.238927L1.44241 0.272013C1.71123 0.528425 1.97178 0.80138 2.23647 1.06606L11 9.8296L20.5907 0.238927C20.9174 -0.0877929 21.4302 -0.0629788 21.7611 0.238927C22.0919 0.540832 22.0671 1.09915 21.7611 1.40933Z" fill="#2D2D2D"/>
</svg>
